<svg width="45" height="45" viewBox="0 0 45 45" fill="none" xmlns="http://www.w3.org/2000/svg">
<rect width="45" height="45" rx="22.5" fill="black" fill-opacity="0.26"/>
<path d="M11.5 22.5C11.5 16.701 16.201 12 22 12C27.799 12 32.5 16.701 32.5 22.5C32.5 28.299 27.799 33 22 33C20.224 33 18.5485 32.5583 17.08 31.7782L12.934 32.9573C12.7413 33.0119 12.5375 33.0141 12.3437 32.9636C12.1499 32.9131 11.9731 32.8118 11.8315 32.6702C11.6899 32.5285 11.5887 32.3516 11.5383 32.1578C11.488 31.9639 11.4903 31.7602 11.545 31.5675L12.724 27.4222C11.9182 25.9068 11.4978 24.2163 11.5 22.5ZM17.5 20.25C17.5 20.4489 17.579 20.6397 17.7197 20.7803C17.8603 20.921 18.0511 21 18.25 21H25.75C25.9489 21 26.1397 20.921 26.2803 20.7803C26.421 20.6397 26.5 20.4489 26.5 20.25C26.5 20.0511 26.421 19.8603 26.2803 19.7197C26.1397 19.579 25.9489 19.5 25.75 19.5H18.25C18.0511 19.5 17.8603 19.579 17.7197 19.7197C17.579 19.8603 17.5 20.0511 17.5 20.25ZM18.25 24C18.0511 24 17.8603 24.079 17.7197 24.2197C17.579 24.3603 17.5 24.5511 17.5 24.75C17.5 24.9489 17.579 25.1397 17.7197 25.2803C17.8603 25.421 18.0511 25.5 18.25 25.5H22.75C22.9489 25.5 23.1397 25.421 23.2803 25.2803C23.421 25.1397 23.5 24.9489 23.5 24.75C23.5 24.5511 23.421 24.3603 23.2803 24.2197C23.1397 24.079 22.9489 24 22.75 24H18.25Z" fill="white"/>
</svg>
