<svg xmlns="http://www.w3.org/2000/svg" width="25" height="25" viewBox="0 0 25 25" fill="none">
  <g clip-path="url(#clip0_89_6478)">
    <path fill-rule="evenodd" clip-rule="evenodd" d="M12.3444 24.2982C5.7983 24.2982 0.390625 18.8906 0.390625 12.3444C0.390625 5.7983 5.78912 0.390625 12.3352 0.390625C18.8814 0.390625 24.2982 5.7983 24.2982 12.3444C24.2982 18.8906 18.8906 24.2982 12.3444 24.2982ZM10.8759 18.3493C11.2156 18.3493 11.5094 18.1932 11.7298 17.8535L17.8995 8.18584C18.0372 7.98385 18.1565 7.73596 18.1565 7.51562C18.1565 7.02902 17.725 6.72604 17.2752 6.72604C17.0089 6.72604 16.7427 6.88212 16.5407 7.19428L10.83 16.2744L7.79108 12.4642C7.55237 12.1613 7.30448 12.0511 7.01068 12.0511C6.56081 12.0511 6.18438 12.4091 6.18438 12.8957C6.18438 13.1253 6.2762 13.3732 6.43227 13.566L9.97618 17.8627C10.2608 18.2116 10.5362 18.3493 10.8759 18.3493Z" fill="#2BCC9C"/>
  </g>
  <defs>
    <clipPath id="clip0_89_6478">
      <rect width="23.9076" height="23.9076" fill="white" transform="translate(0.390625 0.390625)"/>
    </clipPath>
  </defs>
</svg>