<svg xmlns="http://www.w3.org/2000/svg" width="15" height="9" viewBox="0 0 15 9" fill="none">
  <path d="M13.0605 0.292302C13.4509 -0.0981184 14.084 -0.0980515 14.4745 0.292302C14.865 0.682808 14.865 1.31584 14.4745 1.70636L7.4139 8.76698C7.40801 8.77288 7.39845 8.77288 7.39256 8.76698L7.39163 8.76606C7.38619 8.76062 7.37753 8.76084 7.37294 8.76701C7.36839 8.77312 7.3598 8.77328 7.35441 8.7679L0.292877 1.70636C-0.0976154 1.31584 -0.0976363 0.682816 0.292877 0.292302C0.683406 -0.0980369 1.31647 -0.098133 1.70694 0.292302L7.36417 5.94953C7.37468 5.96004 7.39034 5.96144 7.40086 5.95093L13.0605 0.292302Z" fill="#D9D9D9"/>
</svg>