<svg width="47" height="47" viewBox="0 0 47 47" fill="none" xmlns="http://www.w3.org/2000/svg">
<g id="solar:file-check-bold">
<path id="Vector" d="M37.8973 14.9165L30.1423 7.939C27.9353 5.95129 26.8328 4.95646 25.4756 4.4375L25.458 9.79158C25.458 14.4074 25.458 16.7162 26.8915 18.1497C28.325 19.5832 30.6339 19.5832 35.2497 19.5832H42.2605C41.5516 18.2046 40.2787 17.0609 37.8973 14.9165Z" fill="#2BCC9C"/>
<path id="Vector_2" fill-rule="evenodd" clip-rule="evenodd" d="M27.417 43.0837H19.5837C12.1988 43.0837 8.50537 43.0837 6.21216 40.7885C3.91895 38.4933 3.91699 34.8019 3.91699 27.417V19.5837C3.91699 12.1988 3.91699 8.50537 6.21216 6.21216C8.50733 3.91895 12.2184 3.91699 19.6424 3.91699C20.8292 3.91699 21.779 3.91699 22.5799 3.95028C22.5538 4.10695 22.5407 4.26623 22.5407 4.42812L22.5212 9.97803C22.5212 12.1263 22.5212 14.0259 22.7268 15.5554C22.95 17.2141 23.4612 18.8728 24.8163 20.228C26.1676 21.5792 27.8282 22.0923 29.487 22.3155C31.0164 22.5212 32.916 22.5212 35.0643 22.5212H42.9995C43.0837 23.5669 43.0837 24.8516 43.0837 26.5612V27.417C43.0837 34.8019 43.0837 38.4953 40.7885 40.7885C38.4933 43.0817 34.8019 43.0837 27.417 43.0837ZM20.5589 28.2787C20.8498 28.5372 21.0261 28.9006 21.0493 29.2891C21.0724 29.6776 20.9404 30.0593 20.6823 30.3506L15.4594 36.2256C15.3216 36.3806 15.1526 36.5046 14.9634 36.5896C14.7742 36.6745 14.5691 36.7184 14.3618 36.7184C14.1544 36.7184 13.9493 36.6745 13.7602 36.5896C13.571 36.5046 13.4019 36.3806 13.2641 36.2256L10.6517 33.2881C10.393 32.9967 10.2607 32.6145 10.2839 32.2256C10.307 31.8367 10.4837 31.4729 10.7751 31.2142C11.0664 30.9555 11.4486 30.8232 11.8376 30.8464C12.2265 30.8695 12.5903 31.0462 12.849 31.3376L14.3608 33.0413L18.485 28.4001C18.6131 28.2555 18.7685 28.1376 18.9422 28.0531C19.1159 27.9686 19.3045 27.9192 19.4974 27.9078C19.6902 27.8963 19.8834 27.923 20.0659 27.9863C20.2484 28.0496 20.4166 28.1483 20.5609 28.2767" fill="#2BCC9C"/>
</g>
</svg>
