<svg xmlns="http://www.w3.org/2000/svg" width="24" height="24" viewBox="0 0 24 24" fill="none">
  <path d="M7.21856 14.2851L8.06355 14.5149C8.60236 14.662 8.87106 14.7355 9.05915 14.9236C9.24724 15.1117 9.32078 15.3804 9.46715 15.9185L9.69767 16.7642C10.3546 19.1719 10.6827 20.3754 11.4039 20.415C12.1252 20.4532 12.5805 19.2907 13.4899 16.9671L15.986 10.5876C16.7002 8.76327 17.0572 7.8504 16.5948 7.38795C16.1323 6.9255 15.2195 7.28259 13.3951 7.99677L7.01562 10.4929C4.69206 11.4022 3.52958 11.8576 3.56776 12.5788C3.60595 13.3001 4.81015 13.6275 7.21856 14.2851Z" fill="#2BCC9C"/>
</svg>