<svg width="24" height="24" viewBox="0 0 24 24" fill="none" xmlns="http://www.w3.org/2000/svg">
<rect x="0.7" y="0.7" width="22.6" height="22.6" rx="11.3" stroke="#D6D6D6" stroke-width="1.4"/>
<path d="M11.9551 0.0449223C18.5576 0.0449645 23.9102 5.39746 23.9102 12C23.9101 18.6025 18.5576 23.955 11.9551 23.9551C5.35254 23.9551 4.20453e-05 18.6025 0 12C0 5.73087 4.82554 0.589305 10.9648 0.0859379C4.86843 0.592934 0 5.78259 0 11.999C0.000165183 18.545 5.40807 23.9521 11.9541 23.9521C18.5 23.952 23.9071 18.5449 23.9072 11.999C23.9072 5.45443 18.4933 0.0474541 11.9492 0.0449223C11.9511 0.0449214 11.9532 0.0449223 11.9551 0.0449223ZM16.8838 6.37988C17.3337 6.37988 17.7656 6.68332 17.7656 7.16992C17.7655 7.39011 17.6464 7.63802 17.5088 7.83984L11.3389 17.5078C11.1185 17.8474 10.824 18.0029 10.4844 18.0029C10.1449 18.0028 9.86947 17.8653 9.58496 17.5166L6.04102 13.2197C5.88503 13.027 5.79303 12.7792 5.79297 12.5498C5.79297 12.0633 6.16944 11.7053 6.61914 11.7051C6.91294 11.7051 7.16168 11.8152 7.40039 12.1182L10.4385 15.9287L16.1494 6.84766C16.3513 6.53577 16.6177 6.37997 16.8838 6.37988ZM11.9492 0.0449223C11.6178 0.0450791 11.2895 0.0593204 10.9648 0.0859379C11.2881 0.0590565 11.6147 0.0449302 11.9443 0.0449223C11.9459 0.0449223 11.9477 0.0449217 11.9492 0.0449223Z" fill="#D6D6D6"/>
</svg>
